<?xml version="1.0" encoding="UTF-8" standalone="no"?>
<!-- Created with Inkscape (http://www.inkscape.org/) -->
<svg
   xmlns:svg="http://www.w3.org/2000/svg"
   xmlns="http://www.w3.org/2000/svg"
   version="1.0"
   width="162.5"
   height="162.5"
   id="svg101">
  <defs
     id="defs6" />
  <path
     d="M 99.9479,32.10162 L 100.1582,118.7334 C 125.6219,118.7334 151.2956,118.7334 151.2958,95.23691 C 151.2958,68.83342 124.5696,68.83342 100.1582,68.83342 C 118.8876,68.83342 141.1944,68.83342 141.1944,50.48324 C 141.1944,32.10162 119.0982,32.10162 99.9479,32.10162 z "
     style="font-size:12px;fill:none;fill-rule:evenodd;stroke:#0aaee2;stroke-width:13.62473011;stroke-linecap:round;stroke-linejoin:round"
     id="path614" />
  <path
     d="M 103.1341,103.9601 C 103.1341,91.63423 94.14113,76.13385 75.77225,76.13385 C 57.97752,76.13385 49.17567,87.07541 48.60178,109.5317 C 48.79308,138.2356 56.44676,154.9027 74.05019,154.9027 C 90.3143,154.9027 103.3254,142.7339 103.3254,128.2133"
     style="font-size:12px;fill:none;fill-rule:evenodd;stroke:#6a809d;stroke-width:12.38811016;stroke-linecap:round;stroke-linejoin:round"
     id="path615" />
  <path
     d="M 8.627351,89.37857 L 36.25168,9.037083 L 61.92584,89.37857 L 51.08879,55.95649 L 20.13712,55.95649 L 8.627351,89.37857 z "
     style="font-size:12px;fill:none;fill-rule:evenodd;stroke:#3386c9;stroke-width:12.63543034;stroke-linecap:round;stroke-linejoin:round"
     id="path605" />
</svg>
