<?xml version="1.0" encoding="UTF-8" standalone="no"?>
<!-- Created with Inkscape (http://www.inkscape.org/) -->
<svg
   xmlns:svg="http://www.w3.org/2000/svg"
   xmlns="http://www.w3.org/2000/svg"
   version="1.0"
   width="162.5"
   height="162.5"
   id="svg101">
  <defs
     id="defs4" />
  <path
     d="M 16.7288,77.6374 C 16.8407,73.6353 22.2116,80.8399 24.2899,77.6002 C 27.5255,72.9622 34.1058,52.5079 57.1215,54.6421 C 56.0891,62.2404 67.3173,77.2867 75.5448,77.2867 C 84.8019,77.2868 79.9147,64.328 92.2568,63.8138 C 100.999,64.328 100.707,101.614 91.9656,102.129 C 81.6806,101.1 83.2589,87.0573 76.0599,87.0573 C 68.3458,86.543 60.4353,104.197 45.5223,104.711 C 32.4092,104.069 31.3853,97.7156 26.0233,93.062 C 22.9965,90.538 17.981,98.6166 17.6177,95.1445 C 17.2424,91.3707 23.3635,85.4702 23.3128,85.6388 C 23.2391,85.5427 16.9585,81.2499 16.7288,77.6374 z "
     transform="matrix(1.780181,0,0,2.179375,-20.59322,-100.0625)"
     style="font-size:12px;fill:#f0ad43;fill-opacity:0.19607795;fill-rule:evenodd;stroke:#000000;stroke-width:4.41002989;stroke-linecap:round;stroke-linejoin:round"
     id="path1393" />
</svg>
